<svg xmlns="http://www.w3.org/2000/svg" viewBox="0 0 100 100" width="100" height="100">
  <defs>
    <radialGradient id="pokeballGradient" cx="50%" cy="50%">
      <stop offset="0%" style="stop-color:#ff6b6b"/>
      <stop offset="100%" style="stop-color:#d63031"/>
    </radialGradient>
    <radialGradient id="goldGradient" cx="50%" cy="50%">
      <stop offset="0%" style="stop-color:#ffd700"/>
      <stop offset="100%" style="stop-color:#ffb347"/>
    </radialGradient>
  </defs>
  
  <!-- Background circle -->
  <circle cx="50" cy="50" r="48" fill="url(#goldGradient)" stroke="#ffa500" stroke-width="2"/>
  
  <!-- Pokeball top half -->
  <path d="M 10 50 A 40 40 0 0 1 90 50 Z" fill="url(#pokeballGradient)"/>
  
  <!-- Pokeball bottom half -->
  <path d="M 10 50 A 40 40 0 0 0 90 50 Z" fill="#ffffff"/>
  
  <!-- Center line -->
  <line x1="10" y1="50" x2="90" y2="50" stroke="#333" stroke-width="3"/>
  
  <!-- Center circle -->
  <circle cx="50" cy="50" r="8" fill="#ffffff" stroke="#333" stroke-width="3"/>
  <circle cx="50" cy="50" r="4" fill="#333"/>
  
  <!-- Golden sparkles -->
  <g fill="#ffd700">
    <path d="M 25 25 L 27 30 L 32 28 L 29 33 L 34 35 L 28 36 L 25 41 L 22 36 L 16 35 L 21 33 L 18 28 L 23 30 Z"/>
    <path d="M 75 20 L 76 23 L 79 22 L 77 25 L 80 26 L 77 27 L 75 30 L 73 27 L 70 26 L 73 25 L 71 22 L 74 23 Z"/>
    <path d="M 80 70 L 81 72 L 83 71 L 82 73 L 84 74 L 82 75 L 80 77 L 78 75 L 76 74 L 78 73 L 77 71 L 79 72 Z"/>
  </g>
</svg>
